<svg width="24" height="24" viewBox="0 0 24 24" fill="none" xmlns="http://www.w3.org/2000/svg">
<path fill-rule="evenodd" clip-rule="evenodd" d="M6.75 2C4.12665 2 2 4.12665 2 6.75V16.75C2 19.3734 4.12665 21.5 6.75 21.5H16.75C19.3734 21.5 21.5 19.3734 21.5 16.75V6.75C21.5 4.12665 19.3734 2 16.75 2H6.75ZM3.5 6.75C3.5 4.95507 4.95507 3.5 6.75 3.5H16.75C18.5449 3.5 20 4.95507 20 6.75V16.75C20 18.5449 18.5449 20 16.75 20H6.75C4.95507 20 3.5 18.5449 3.5 16.75V6.75ZM11.75 6C12.1642 6 12.5 6.33579 12.5 6.75V11H16.75C17.1642 11 17.5 11.3358 17.5 11.75C17.5 12.1642 17.1642 12.5 16.75 12.5H12.5V16.75C12.5 17.1642 12.1642 17.5 11.75 17.5C11.3358 17.5 11 17.1642 11 16.75V12.5H6.75C6.33579 12.5 6 12.1642 6 11.75C6 11.3358 6.33579 11 6.75 11H11V6.75C11 6.33579 11.3358 6 11.75 6Z" fill="black"/>
</svg>
