<svg width="22" height="23" viewBox="0 0 22 23" fill="none" xmlns="http://www.w3.org/2000/svg">
<path fill-rule="evenodd" clip-rule="evenodd" d="M22 11C22 4.92487 17.0751 0 11 0C4.92487 0 0 4.92487 0 11C0 17.0751 4.92487 22 11 22C12.326 22 14.1475 21.5163 16.4645 20.5489L20.2113 22.0104L20.3223 22.0465C20.8067 22.1735 21.3199 21.92 21.5063 21.4422C21.5808 21.2511 21.5948 21.0418 21.5464 20.8425L20.5016 16.546L20.6727 16.1367C21.5576 13.9813 22 12.2691 22 11ZM19.2714 15.6004L18.9265 16.4169L19.862 20.2641L16.4454 18.9313L15.5123 19.3183C13.5445 20.1124 12.0245 20.5 11 20.5C5.75329 20.5 1.5 16.2467 1.5 11C1.5 5.75329 5.75329 1.5 11 1.5C16.2467 1.5 20.5 5.75329 20.5 11C20.5 12.0455 20.097 13.5952 19.2714 15.6004Z" fill="#262626"/>
</svg>
