<svg width="24" height="24" viewBox="0 0 24 24" fill="none" xmlns="http://www.w3.org/2000/svg">
<path fill-rule="evenodd" clip-rule="evenodd" d="M18.6304 15.9733C18.538 15.6283 18.5717 15.2616 18.7254 14.9392C19.2215 13.8992 19.5 12.7342 19.5 11.5C19.5 7.08172 15.9183 3.5 11.5 3.5C7.08172 3.5 3.5 7.08172 3.5 11.5C3.5 15.9183 7.08172 19.5 11.5 19.5C12.9072 19.5 14.2253 19.138 15.3709 18.5031C15.7109 18.3147 16.1108 18.2657 16.4862 18.3663L19.4871 19.1703L18.6304 15.9733ZM16.098 19.8152C14.7355 20.5701 13.168 21 11.5 21C6.25329 21 2 16.7467 2 11.5C2 6.25329 6.25329 2 11.5 2C16.7467 2 21 6.25329 21 11.5C21 12.9624 20.6696 14.3476 20.0793 15.585L21.1601 19.6186C21.3593 20.3622 20.6789 21.0426 19.9354 20.8434L16.098 19.8152Z" fill="black"/>
</svg>
