<svg width="22" height="24" viewBox="0 0 22 24" fill="none" xmlns="http://www.w3.org/2000/svg">
<path fill-rule="evenodd" clip-rule="evenodd" d="M21.7 10.0873L11.7 0.285839C11.3111 -0.0952795 10.6889 -0.0952795 10.3 0.285839L0.300019 10.0873C0.108129 10.2754 0 10.5327 0 10.8014V22.8813L0.00804008 22.9712C0.0503849 23.2045 0.25454 23.3813 0.5 23.3813L8.5 23.381C8.77613 23.381 8.99998 23.1571 9 22.881V17.3813L9.00509 17.2051C9.09634 15.6303 9.40232 14.3813 11 14.3813L11.1763 14.3864C12.6344 14.4709 12.9558 15.5968 12.9955 17.0315L13 17.3813V22.881C13 23.1571 13.2239 23.381 13.5 23.381L21.5 23.3813L21.5899 23.3733C21.8231 23.331 22 23.1268 22 22.8813V10.8014C22 10.5327 21.8919 10.2754 21.7 10.0873ZM1.5 11.0115L11 1.70012L20.5 11.0115V21.8813L14.5 21.8811V17.3813L14.4953 17.012C14.4284 14.5819 13.5423 13.021 11.263 12.8889L11.0433 12.882C8.55145 12.8813 7.66187 14.4559 7.5076 17.1183L7.50063 17.338L7.50011 21.8811L1.5 21.8813V11.0115Z" fill="#262626"/>
</svg>
