<svg width="24" height="24" viewBox="0 0 24 24" fill="none" xmlns="http://www.w3.org/2000/svg">
<path d="M12.2011 13.557L12.1909 13.5565L12.1806 13.5562L12.0204 13.5518L12.0102 13.5516H12C10.1886 13.5516 8.63832 14.892 8.52878 16.6708L8.52806 16.6824L8.52771 16.6939L8.52308 16.8447L8.52273 16.8562V16.8677V21.2498L2.75 21.25V11.2394C2.75 11.2266 2.75506 11.2039 2.7812 11.1798L2.27511 10.6311L2.78121 11.1798L11.8721 2.79583C11.9006 2.76953 11.945 2.75 12 2.75C12.055 2.75 12.0994 2.76953 12.1279 2.79583L21.2188 11.1798C21.2449 11.2039 21.25 11.2266 21.25 11.2394V21.2497H15.4773V16.8677C15.4773 15.0615 13.988 13.6545 12.2011 13.557Z" stroke="black" stroke-width="1.5"/>
</svg>
