<svg width="22" height="24" viewBox="0 0 22 24" fill="none" xmlns="http://www.w3.org/2000/svg">
<path d="M11.7 0.285839L21.7 10.0873C21.8919 10.2754 22 10.5327 22 10.8014V22.8813C22 23.1268 21.8231 23.331 21.5899 23.3733L21.5 23.3813L13.5 23.381C13.2239 23.381 13 23.1571 13 22.881V17.3813L12.9955 17.0315C12.9558 15.5968 12.6344 14.4709 11.1763 14.3864L11 14.3813C9.40232 14.3813 9.09634 15.6303 9.00509 17.2051L9 17.3813V22.881C8.99998 23.1571 8.77613 23.381 8.5 23.381L0.5 23.3813C0.25454 23.3813 0.0503849 23.2045 0.00804008 22.9712L0 22.8813V10.8014C0 10.5327 0.108129 10.2754 0.300019 10.0873L10.3 0.285839C10.6889 -0.0952795 11.3111 -0.0952795 11.7 0.285839Z" fill="#262626"/>
</svg>
