<svg width="24" height="24" viewBox="0 0 24 24" fill="none" xmlns="http://www.w3.org/2000/svg">
<path fill-rule="evenodd" clip-rule="evenodd" d="M13.0849 4.26912C12.937 4.39545 12.7934 4.53142 12.6546 4.6771L12.0361 5.35664L11.4824 4.6771C11.3342 4.52152 11.1802 4.37699 11.021 4.24342C8.78733 2.36823 5.55231 2.65241 3.47218 4.83654C1.24388 7.17625 1.67273 11.6997 3.90103 14.0394C4.8054 14.989 6.15976 16.3038 7.96409 17.9838L9.48206 19.386L11.187 20.9399C11.6564 21.3653 12.35 21.3718 12.8266 20.9553L14.2078 19.7394C16.6265 17.5931 18.4214 15.9025 19.5924 14.6677L19.8963 14.3423L20.1692 14.0394C22.2445 11.6896 22.7778 7.12184 20.6013 4.83654L20.4436 4.6771C18.3484 2.637 15.2567 2.41377 13.0849 4.26912ZM19.3877 5.74256C17.6938 4.10196 15.295 4.09157 13.7517 5.70026L11.9733 7.65408L10.359 5.67304C8.77351 4.05047 6.23822 4.10721 4.55839 5.87102C3.81133 6.65544 3.42316 7.91528 3.51246 9.34443C3.60153 10.7699 4.15606 12.1322 4.98723 13.0049C5.8598 13.9211 7.18728 15.2109 8.98399 16.8839C8.98474 16.8846 8.9855 16.8853 8.98625 16.886L10.4962 18.2807L12.0186 19.6682L13.2122 18.6174C13.2129 18.6168 13.2136 18.6162 13.2143 18.6156C15.62 16.4807 17.3744 14.8262 18.5 13.6397L18.7909 13.3282L19.0496 13.0412C19.8302 12.1542 20.3818 10.7577 20.4833 9.30888C20.5854 7.85348 20.2205 6.61874 19.5237 5.88012L19.3877 5.74256Z" fill="black"/>
</svg>
