<svg width="24" height="24" viewBox="0 0 24 24" fill="none" xmlns="http://www.w3.org/2000/svg">
<path fill-rule="evenodd" clip-rule="evenodd" d="M16.75 0C20.4779 0 23.5 3.02208 23.5 6.75V16.75C23.5 20.4779 20.4779 23.5 16.75 23.5H6.75C3.02208 23.5 0 20.4779 0 16.75V6.75C0 3.02208 3.02208 0 6.75 0H16.75ZM16.75 1.5H6.75C3.85051 1.5 1.5 3.85051 1.5 6.75V16.75C1.5 19.6495 3.85051 22 6.75 22H16.75C19.6495 22 22 19.6495 22 16.75V6.75C22 3.85051 19.6495 1.5 16.75 1.5ZM12.4932 5.64823C12.4435 5.28215 12.1297 5 11.75 5L11.6482 5.00685L11.5506 5.02679C11.2332 5.11411 11 5.40482 11 5.75V10.999L5.75 11L5.64823 11.0068C5.28215 11.0565 5 11.3703 5 11.75L5.00685 11.8518C5.05651 12.2178 5.3703 12.5 5.75 12.5L11 12.499V17.75L11.0068 17.8518C11.0565 18.2178 11.3703 18.5 11.75 18.5L11.8518 18.4932C12.2178 18.4435 12.5 18.1297 12.5 17.75V12.5H17.75L17.8518 12.4932C18.2178 12.4435 18.5 12.1297 18.5 11.75L18.4932 11.6482C18.4435 11.2822 18.1297 11 17.75 11H12.5V5.75L12.4932 5.64823Z" fill="#262626"/>
</svg>
